REM MD5 31705e7e326f31f28d17ce5a23b245e8
FILE "Squaresoft on PlayStation Collector's CD (USA).bin" BINARY
  TRACK 01 MODE2/2352
    INDEX 01 00:00:00
  TRACK 02 AUDIO
    INDEX 00 23:48:68
    INDEX 01 23:50:68
  TRACK 03 AUDIO
    INDEX 00 26:20:74
    INDEX 01 26:22:74
REM LEADOUT 26:28:70
